# xmcd CD database file
#
# Track frame offsets:
#	150
#	19688
#	38813
#	59451
#	78709
#	95048
#	108482
#	131672
#	155944
#	177976
#	199644
#	219459
#	245036
#	259582
#
# Disc length: 3694 seconds
#
# Revision: 0
# Processed by: cddbd v1.5.2PL0 Copyright (c) Steve Scherf et al.
# Submitted via: CDex 1.51
#
DISCID=cd0e6c0e
DTITLE=Tradicionales del Son - Che Comandante
DYEAR=2009
DGENRE=Salsa
TTITLE0=Son de la loma
TTITLE1=Babalao
TTITLE2=Mandinga
TTITLE3=Chan Cahn
TTITLE4=Son del Caney
TTITLE5=Paralitico
TTITLE6=Cafetal
TTITLE7=Yolanda
TTITLE8=Tilin Tilin
TTITLE9=Che comandante
TTITLE10=Cangrejo
TTITLE11=Montón de estrellas
TTITLE12=Flor pálida
TTITLE13=Saranda
EXTD=YEAR: 2009
EXTT0=
EXTT1=
EXTT2=
EXTT3=
EXTT4=
EXTT5=
EXTT6=
EXTT7=
EXTT8=
EXTT9=
EXTT10=
EXTT11=
EXTT12=
EXTT13=
PLAYORDER=
